<?xml version="1.0" encoding="UTF-8" standalone="no"?>
<!-- Created with Inkscape (http://www.inkscape.org/) -->

<svg
   width="256"
   height="256"
   viewBox="0 0 67.733332 67.733333"
   version="1.1"
   id="svg831"
   inkscape:version="1.2.2 (b0a8486541, 2022-12-01)"
   sodipodi:docname="mptcp_logo_square.svg"
   xmlns:inkscape="http://www.inkscape.org/namespaces/inkscape"
   xmlns:sodipodi="http://sodipodi.sourceforge.net/DTD/sodipodi-0.dtd"
   xmlns="http://www.w3.org/2000/svg"
   xmlns:svg="http://www.w3.org/2000/svg">
  <sodipodi:namedview
     id="namedview833"
     pagecolor="#ffffff"
     bordercolor="#000000"
     borderopacity="0.25"
     inkscape:showpageshadow="2"
     inkscape:pageopacity="0.0"
     inkscape:pagecheckerboard="true"
     inkscape:deskcolor="#d1d1d1"
     inkscape:document-units="mm"
     showgrid="false"
     inkscape:zoom="0.702883"
     inkscape:cx="397.64797"
     inkscape:cy="107.41475"
     inkscape:window-width="1866"
     inkscape:window-height="1017"
     inkscape:window-x="0"
     inkscape:window-y="0"
     inkscape:window-maximized="1"
     inkscape:current-layer="layer1" />
  <defs
     id="defs828">
    <inkscape:path-effect
       effect="fillet_chamfer"
       id="path-effect118"
       is_visible="true"
       lpeversion="1"
       nodesatellites_param="F,0,0,1,0,0,0,1 @ F,0,0,1,0,0,0,1 @ F,0,0,1,0,0,0,1 @ F,0,0,1,0,0,0,1 @ F,0,0,1,0,0,0,1 | F,0,0,1,0,0,0,1 @ F,0,0,1,0,0,0,1 @ F,0,0,1,0,0,0,1 @ F,0,0,1,0,0,0,1 @ F,0,0,1,0,0,0,1 @ F,0,0,1,0,0,0,1 @ F,0,0,1,0,0,0,1 @ F,0,0,1,0,0,0,1 | F,0,0,1,0,0,0,1 @ F,0,0,1,0,0,0,1 @ F,0,0,1,0,0,0,1 @ F,0,0,1,0,0,0,1 @ F,0,0,1,0,0,0,1 @ F,0,0,1,0,0,0,1 @ F,0,0,1,0,0,0,1 @ F,0,0,1,0,0,0,1 @ F,0,0,1,0,0,0,1 @ F,0,0,1,0,0,0,1 @ F,0,0,1,0,0,0,1 @ F,0,0,1,0,0,0,1 @ F,0,0,1,0,0,0,1 @ F,0,0,1,0,0,0,1 @ F,0,0,1,0,0,0,1 @ F,0,0,1,0,0,0,1 @ F,0,0,1,0,0,0,1 @ F,0,0,1,0,0,0,1 @ F,0,0,1,0,0,0,1 @ F,0,0,1,0,0,0,1 @ F,0,0,1,0,0,0,1 @ F,0,0,1,0,0,0,1 @ F,0,0,1,0,0,0,1 @ F,0,0,1,0,0,0,1 @ F,0,0,1,0,0,0,1 @ F,0,0,1,0,0,0,1 @ F,0,0,1,0,0,0,1 @ F,0,0,1,0,0,0,1 | F,0,0,1,0,0,0,1 @ F,0,0,1,0,0,0,1 @ F,0,0,1,0,0,0,1 @ F,0,0,1,0,0,0,1 @ F,0,0,1,0,0,0,1 @ F,0,0,1,0,0,0,1 @ F,0,0,1,0,0,0,1 @ F,0,0,1,0,0,0,1 @ F,0,0,1,0,0,0,1 @ F,0,0,1,0,0,0,1 @ F,0,0,1,0,0,0,1 | F,0,0,1,0,0,0,1 @ F,0,0,1,0,0,0,1 @ F,0,0,1,0,0,0,1 @ F,0,0,1,0,0,0,1 @ F,0,0,1,0,0,0,1 @ F,0,0,1,0,0,0,1 @ F,0,0,1,0,0,0,1"
       radius="0"
       unit="px"
       method="auto"
       mode="F"
       chamfer_steps="1"
       flexible="false"
       use_knot_distance="true"
       apply_no_radius="true"
       apply_with_radius="true"
       only_selected="false"
       hide_knots="false" />
    <inkscape:path-effect
       effect="fillet_chamfer"
       id="path-effect119"
       is_visible="true"
       lpeversion="1"
       nodesatellites_param="F,0,0,1,0,0,0,1 @ F,0,1,1,0,1.2739129,0,1 @ F,0,0,1,0,1.2739129,0,1 @ F,0,1,1,0,1.2739129,0,1 @ F,0,0,1,0,0,0,1 | F,0,0,1,0,0,0,1 @ F,0,0,1,0,0,0,1 @ F,0,0,1,0,0,0,1 @ F,0,0,1,0,0,0,1 @ F,0,0,1,0,0,0,1 @ F,0,0,1,0,0,0,1 @ F,0,0,1,0,0,0,1 @ F,0,0,1,0,0,0,1 @ F,0,0,1,0,0,0,1 @ F,0,0,1,0,0,0,1 @ F,0,0,1,0,0,0,1 @ F,0,0,1,0,0,0,1 @ F,0,0,1,0,0,0,1 | F,0,0,1,0,0,0,1 @ F,0,0,1,0,0,0,1 @ F,0,0,1,0,0,0,1 @ F,0,0,1,0,0,0,1 @ F,0,0,1,0,0,0,1 @ F,0,0,1,0,0,0,1 @ F,0,0,1,0,0,0,1 @ F,0,0,1,0,0,0,1 @ F,0,0,1,0,0,0,1"
       radius="0"
       unit="px"
       method="auto"
       mode="F"
       chamfer_steps="1"
       flexible="false"
       use_knot_distance="true"
       apply_no_radius="true"
       apply_with_radius="true"
       only_selected="false"
       hide_knots="false" />
    <inkscape:path-effect
       effect="fillet_chamfer"
       id="path-effect117"
       is_visible="true"
       lpeversion="1"
       nodesatellites_param="F,0,1,1,0,1.3151989,0,1 @ F,0,0,1,0,0,0,1 @ F,0,0,1,0,0,0,1 @ F,0,0,1,0,0,0,1 @ F,0,0,1,0,0,0,1 @ F,0,0,1,0,0,0,1 @ F,0,0,1,0,0,0,1 @ F,0,0,1,0,0,0,1 @ F,0,0,1,0,0,0,1 @ F,0,0,1,0,0,0,1 @ F,0,0,1,0,0,0,1 @ F,0,0,1,0,0,0,1 @ F,0,0,1,0,0,0,1 @ F,0,0,1,0,0,0,1 @ F,0,0,1,0,0,0,1 @ F,0,0,1,0,0,0,1 @ F,0,0,1,0,0,0,1 @ F,0,0,1,0,0,0,1 @ F,0,0,1,0,0,0,1 @ F,0,0,1,0,0,0,1 @ F,0,0,1,0,0,0,1 @ F,0,0,1,0,0,0,1 @ F,0,0,1,0,0,0,1 @ F,0,0,1,0,0,0,1 @ F,0,0,1,0,0,0,1 @ F,0,0,1,0,0,0,1 @ F,0,0,1,0,0,0,1 @ F,0,0,1,0,0,0,1 @ F,0,0,1,0,0,0,1 @ F,0,0,1,0,0,0,1 @ F,0,0,1,0,0,0,1 @ F,0,0,1,0,1.3151989,0,1 @ F,0,1,1,0,1.3151989,0,1 | F,0,0,1,0,0,0,1 @ F,0,0,1,0,0,0,1 @ F,0,0,1,0,0,0,1"
       radius="0"
       unit="px"
       method="auto"
       mode="F"
       chamfer_steps="1"
       flexible="false"
       use_knot_distance="true"
       apply_no_radius="true"
       apply_with_radius="true"
       only_selected="false"
       hide_knots="false" />
    <inkscape:path-effect
       effect="fillet_chamfer"
       id="path-effect120"
       is_visible="true"
       lpeversion="1"
       nodesatellites_param="F,0,0,1,0,1.2777777,0,1 @ F,0,1,1,0,1.2777777,0,1 @ F,0,1,1,0,1.2777777,0,1 @ F,0,0,1,0,0,0,1 @ F,0,0,1,0,0,0,1 @ F,0,0,1,0,0,0,1 @ F,0,0,1,0,0,0,1 @ F,0,0,1,0,0,0,1 @ F,0,0,1,0,0,0,1 @ F,0,0,1,0,0,0,1 @ F,0,0,1,0,0,0,1 @ F,0,0,1,0,0,0,1 @ F,0,0,1,0,0,0,1 @ F,0,0,1,0,0,0,1 @ F,0,0,1,0,0,0,1 @ F,0,0,1,0,0,0,1 @ F,0,0,1,0,0,0,1 @ F,0,0,1,0,0,0,1 @ F,0,0,1,0,0,0,1 @ F,0,0,1,0,0,0,1 @ F,0,0,1,0,0,0,1"
       radius="0"
       unit="px"
       method="auto"
       mode="F"
       chamfer_steps="1"
       flexible="false"
       use_knot_distance="true"
       apply_no_radius="true"
       apply_with_radius="true"
       only_selected="false"
       hide_knots="false" />
  </defs>
  <g
     inkscape:label="Layer 1"
     inkscape:groupmode="layer"
     id="layer1">
    <path
       d="M 5.8958919,0.52524603 0.51243658,6.1052292 A 1.8279779,1.8279779 99.019046 0 0 0.18408679,8.1738973 L 6.2242417,20.59382 a 3.8389691,3.8389691 45.655341 0 0 1.6948475,1.734068 l 10.7512348,5.536213 1.162199,-0.811875 2.89642,-2.020374 -0.0228,-5.480234 -2.920463,4.842616 -1.994217,-1.016868 -2.914602,-7.544657 v 7.614759 L 10.753896,21.344974 V 4.0536744 l 3.719962,1.8968574 4.377119,11.4344982 4.252307,-7.034554 3.719962,1.896837 0.02211,9.91223 3.411217,-2.37958 -0.01011,-6.79354 -9.91e-4,-1.300616 L 7.9191193,0.19058808 A 1.7183465,1.7183465 170.60786 0 0 5.8958919,0.52524603 Z"
       style="fill:#0044aa;stroke-width:0.441742;stroke-linecap:round;stroke-linejoin:round;stroke-dashoffset:24.44"
       id="path114"
       inkscape:original-d="m 6.7830783,-0.39432788 -7.1578281,7.41913098 7.1578281,14.7181109 11.8872457,6.121187 1.162199,-0.811875 2.89642,-2.020374 -0.0228,-5.480234 -2.920463,4.842616 -1.994217,-1.016868 -2.914602,-7.544657 v 7.614759 L 10.753896,21.344974 V 4.0536744 l 3.719962,1.8968574 4.377119,11.4344982 4.252307,-7.034554 3.719962,1.896837 0.02211,9.91223 3.411217,-2.37958 -0.01011,-6.79354 -9.91e-4,-1.300616 z"
       inkscape:path-effect="#path-effect120" />
    <path
       d="m 58.511986,3.5019956 -23.228902,13.0304254 0.0113,6.845608 0.02201,2.732777 0.29439,-0.164913 0.07554,-0.04276 2.396049,-1.344012 c 1.540553,-0.86414 2.219522,-1.595292 2.648579,-2.223347 0.429057,-0.628056 0.724397,-1.397426 1.28831,-2.639956 0.563883,-1.242501 1.420638,-2.841465 2.7829,-4.339849 0.949921,-1.044842 2.13637,-2.063998 3.682892,-3.101327 v -2.188623 l 6.923857,-0.02999 -6.923857,7.737614 v -1.940907 c -1.246462,0.856994 -2.125574,1.63558 -2.73887,2.31013 -0.928159,1.020967 -1.302993,1.76174 -1.741221,2.727422 -0.06791,0.149659 -0.140785,0.320977 -0.212159,0.486068 l 10.841652,-6.081127 v -2.074451 l 6.923144,-0.02999 -6.923144,7.738297 v -2.072452 l -15.022248,8.425992 c 0.04352,0.06662 0.08755,0.130287 0.1321,0.188947 0.3314,0.435574 0.661392,0.732142 1.403565,0.763144 0.401505,0.01683 1.716762,-0.382527 2.430551,-0.632283 v -1.863458 l 6.923868,-0.0293 -5.949002,6.64798 1.100382,0.55818 12.857769,-7.212378 a 4.0018484,4.0018484 132.51739 0 0 1.688795,-1.841873 L 65.832868,11.380833 A 1.9929555,1.9929555 80.902621 0 0 65.485742,9.2130177 L 60.547896,3.8279184 A 1.6602185,1.6602185 9.0951387 0 0 58.511986,3.5019956 Z M 43.578959,31.185101 c -0.229697,0.09018 -0.493511,0.182503 -0.760516,0.272404 l 0.760516,0.385912 z"
       style="fill:#ffcc00;stroke-width:0.428293;stroke-linecap:round;stroke-linejoin:round;stroke-dashoffset:24.44"
       id="path115"
       inkscape:original-d="m 59.659036,2.8585491 -24.375952,13.6738719 0.0113,6.845608 0.02201,2.732777 0.29439,-0.164913 0.07554,-0.04276 2.396049,-1.344012 c 1.540553,-0.86414 2.219522,-1.595292 2.648579,-2.223347 0.429057,-0.628056 0.724397,-1.397426 1.28831,-2.639956 0.563883,-1.242501 1.420638,-2.841465 2.7829,-4.339849 0.949921,-1.044842 2.13637,-2.063998 3.682892,-3.101327 v -2.188623 l 6.923857,-0.02999 -6.923857,7.737614 v -1.940907 c -1.246462,0.856994 -2.125574,1.63558 -2.73887,2.31013 -0.928159,1.020967 -1.302993,1.76174 -1.741221,2.727422 -0.06791,0.149659 -0.140785,0.320977 -0.212159,0.486068 l 10.841652,-6.081127 v -2.074451 l 6.923144,-0.02999 -6.923144,7.738297 v -2.072452 l -15.022248,8.425992 c 0.04352,0.06662 0.08755,0.130287 0.1321,0.188947 0.3314,0.435574 0.661392,0.732142 1.403565,0.763144 0.401505,0.01683 1.716762,-0.382527 2.430551,-0.632283 v -1.863458 l 6.923868,-0.0293 -5.949002,6.64798 1.100382,0.55818 14.00483,-7.855805 6.7161,-14.857643 z M 43.578959,31.185101 c -0.229697,0.09018 -0.493511,0.182503 -0.760516,0.272404 l 0.760516,0.385912 z"
       inkscape:path-effect="#path-effect117" />
    <path
       d="M 30.261824,23.046876 7.8052115,40.020054 A 4.8373107,4.8373107 128.16331 0 0 6.2828046,41.95724 L 0.13917601,56.147955 a 1.6551121,1.6551121 75.824483 0 0 0.49444549,1.957547 l 5.1547376,4.062149 a 1.6505382,1.6505382 0.57803163 0 0 2.0168421,0.02035 L 30.295622,45.18879 Z m -6.108079,8.186957 c 0.611016,0.01752 1.10296,0.255428 1.476803,0.713067 0.498438,0.593736 0.748163,1.557923 0.748163,2.89368 0,1.335757 -0.249725,2.679879 -0.748163,4.032057 -0.498458,1.352198 -1.207249,2.650202 -2.127457,3.894523 -0.907427,1.218071 -1.987108,2.303964 -3.239608,3.256877 l -1.937011,1.472893 v 4.254383 l -4.524021,3.441834 V 37.878476 l 6.461032,-4.915382 c 1.2525,-0.952922 2.332181,-1.511172 3.239608,-1.673847 0.230044,-0.04306 0.446972,-0.06187 0.650654,-0.05543 z m -3.049162,5.897525 c -0.282739,0.01158 -0.659368,0.194778 -1.129055,0.552152 l -1.649056,1.254558 v 4.057427 l 1.649056,-1.255221 c 0.626246,-0.476476 1.086652,-1.007276 1.380604,-1.593718 0.306733,-0.596162 0.459554,-1.208102 0.459554,-1.834762 0,-0.626651 -0.152821,-1.004268 -0.459554,-1.133704 -0.07346,-0.03504 -0.157342,-0.05068 -0.251549,-0.04672 z"
       style="fill:#d40000;stroke-width:0.441992;stroke-linecap:round;stroke-linejoin:round;stroke-dashoffset:24.44"
       id="path116"
       inkscape:original-d="M 30.261824,23.046876 6.7889278,40.788183 -0.36694715,57.317012 6.7889278,62.956141 30.295622,45.18879 Z m -6.108079,8.186957 c 0.611016,0.01752 1.10296,0.255428 1.476803,0.713067 0.498438,0.593736 0.748163,1.557923 0.748163,2.89368 0,1.335757 -0.249725,2.679879 -0.748163,4.032057 -0.498458,1.352198 -1.207249,2.650202 -2.127457,3.894523 -0.907427,1.218071 -1.987108,2.303964 -3.239608,3.256877 l -1.937011,1.472893 v 4.254383 l -4.524021,3.441834 V 37.878476 l 6.461032,-4.915382 c 1.2525,-0.952922 2.332181,-1.511172 3.239608,-1.673847 0.230044,-0.04306 0.446972,-0.06187 0.650654,-0.05543 z m -3.049162,5.897525 c -0.282739,0.01158 -0.659368,0.194778 -1.129055,0.552152 l -1.649056,1.254558 v 4.057427 l 1.649056,-1.255221 c 0.626246,-0.476476 1.086652,-1.007276 1.380604,-1.593718 0.306733,-0.596162 0.459554,-1.208102 0.459554,-1.834762 0,-0.626651 -0.152821,-1.004268 -0.459554,-1.133704 -0.07346,-0.03504 -0.157342,-0.05068 -0.251549,-0.04672 z"
       inkscape:path-effect="#path-effect119" />
    <path
       d="m 32.820876,28.073746 v 22.185322 l 28.387566,17.474248 6.524891,-6.651859 -6.524891,-15.533461 z m 2.052712,5.910216 8.548822,5.261898 v 3.370405 l -2.713103,-1.66985 v 9.522298 l -3.122616,-1.922219 v -9.522288 l -2.713103,-1.670522 z m 11.718246,7.541995 c 0.07584,0.003 0.153098,0.0079 0.231403,0.01603 0.635207,0.05939 1.323317,0.316999 2.064401,0.773172 0.908706,0.559368 1.711923,1.2748 2.408917,2.14589 0.705789,0.876464 1.287785,1.873813 1.746545,2.991154 l -1.972108,1.235849 c -0.273499,-0.647215 -0.577356,-1.202941 -0.912603,-1.667162 -0.326422,-0.471082 -0.696855,-0.834415 -1.111496,-1.089634 -0.326432,-0.200954 -0.622577,-0.309584 -0.887261,-0.325155 -0.264676,-0.01564 -0.4936,0.05791 -0.687695,0.221 -0.185281,0.168367 -0.330924,0.423102 -0.43681,0.763144 -0.105905,0.327757 -0.15859,0.736684 -0.15859,1.227851 0,0.491146 0.05274,0.971799 0.15859,1.442158 0.105916,0.458114 0.251529,0.885462 0.43681,1.281928 0.194095,0.401908 0.423019,0.758016 0.687695,1.068272 0.264684,0.310276 0.560829,0.566199 0.887261,0.767143 0.414641,0.25523 0.785074,0.354039 1.111496,0.297121 0.335247,-0.06375 0.639104,-0.25032 0.912603,-0.560844 l 1.972108,3.662834 c -0.45876,0.540284 -1.040756,0.820716 -1.746545,0.840602 -0.696994,0.01307 -1.500211,-0.260565 -2.408917,-0.819904 -0.741084,-0.456184 -1.429194,-1.039012 -2.064401,-1.749286 -0.626384,-0.717115 -1.173025,-1.520151 -1.64061,-2.409633 -0.45877,-0.884037 -0.816642,-1.816677 -1.072503,-2.796861 -0.255852,-0.980174 -0.38351,-1.967841 -0.38351,-2.962438 0,-0.994586 0.127658,-1.823883 0.38351,-2.489079 0.255861,-0.665196 0.613733,-1.15761 1.072503,-1.476884 0.409128,-0.274631 0.878487,-0.40371 1.409207,-0.387249 z m 7.351526,4.196306 4.459667,2.744775 c 0.864577,0.532196 1.610261,1.187819 2.236664,1.966296 0.635218,0.783932 1.124286,1.650043 1.468347,2.59856 0.34407,0.936264 0.516759,1.901777 0.516759,2.896364 0,0.994586 -0.172689,1.747386 -0.516759,2.260053 -0.344061,0.512646 -0.833129,0.776982 -1.468347,0.791186 -0.626403,0.0069 -1.372087,-0.255011 -2.236664,-0.787187 l -1.336415,-0.822557 v 3.167421 L 53.94336,58.614956 Z m 3.123252,5.274577 v 3.019871 l 1.137512,0.701049 c 0.432318,0.266138 0.749976,0.326203 0.952905,0.180939 0.211822,-0.13977 0.317857,-0.442771 0.317857,-0.909358 0,-0.466607 -0.106035,-0.900152 -0.317857,-1.300627 -0.202929,-0.395019 -0.520587,-0.725379 -0.952905,-0.991487 z"
       style="fill:#447821;stroke-width:0.4259;stroke-linecap:round;stroke-linejoin:round;stroke-dashoffset:24.44"
       id="path117"
       sodipodi:nodetypes="cccccccccccccccccsccccssccsccssccccsccsssccccccsscsccccccccsccc"
       inkscape:original-d="m 32.820876,28.073746 v 22.185322 l 28.387566,17.474248 6.524891,-6.651859 -6.524891,-15.533461 z m 2.052712,5.910216 8.548822,5.261898 v 3.370405 l -2.713103,-1.66985 v 9.522298 l -3.122616,-1.922219 v -9.522288 l -2.713103,-1.670522 z m 11.718246,7.541995 c 0.07584,0.003 0.153098,0.0079 0.231403,0.01603 0.635207,0.05939 1.323317,0.316999 2.064401,0.773172 0.908706,0.559368 1.711923,1.2748 2.408917,2.14589 0.705789,0.876464 1.287785,1.873813 1.746545,2.991154 l -1.972108,1.235849 c -0.273499,-0.647215 -0.577356,-1.202941 -0.912603,-1.667162 -0.326422,-0.471082 -0.696855,-0.834415 -1.111496,-1.089634 -0.326432,-0.200954 -0.622577,-0.309584 -0.887261,-0.325155 -0.264676,-0.01564 -0.4936,0.05791 -0.687695,0.221 -0.185281,0.168367 -0.330924,0.423102 -0.43681,0.763144 -0.105905,0.327757 -0.15859,0.736684 -0.15859,1.227851 0,0.491146 0.05274,0.971799 0.15859,1.442158 0.105916,0.458114 0.251529,0.885462 0.43681,1.281928 0.194095,0.401908 0.423019,0.758016 0.687695,1.068272 0.264684,0.310276 0.560829,0.566199 0.887261,0.767143 0.414641,0.25523 0.785074,0.354039 1.111496,0.297121 0.335247,-0.06375 0.639104,-0.25032 0.912603,-0.560844 l 1.972108,3.662834 c -0.45876,0.540284 -1.040756,0.820716 -1.746545,0.840602 -0.696994,0.01307 -1.500211,-0.260565 -2.408917,-0.819904 -0.741084,-0.456184 -1.429194,-1.039012 -2.064401,-1.749286 -0.626384,-0.717115 -1.173025,-1.520151 -1.64061,-2.409633 -0.45877,-0.884037 -0.816642,-1.816677 -1.072503,-2.796861 -0.255852,-0.980174 -0.38351,-1.967841 -0.38351,-2.962438 0,-0.994586 0.127658,-1.823883 0.38351,-2.489079 0.255861,-0.665196 0.613733,-1.15761 1.072503,-1.476884 0.409128,-0.274631 0.878487,-0.40371 1.409207,-0.387249 z m 7.351526,4.196306 4.459667,2.744775 c 0.864577,0.532196 1.610261,1.187819 2.236664,1.966296 0.635218,0.783932 1.124286,1.650043 1.468347,2.59856 0.34407,0.936264 0.516759,1.901777 0.516759,2.896364 0,0.994586 -0.172689,1.747386 -0.516759,2.260053 -0.344061,0.512646 -0.833129,0.776982 -1.468347,0.791186 -0.626403,0.0069 -1.372087,-0.255011 -2.236664,-0.787187 l -1.336415,-0.822557 v 3.167421 L 53.94336,58.614956 Z m 3.123252,5.274577 v 3.019871 l 1.137512,0.701049 c 0.432318,0.266138 0.749976,0.326203 0.952905,0.180939 0.211822,-0.13977 0.317857,-0.442771 0.317857,-0.909358 0,-0.466607 -0.106035,-0.900152 -0.317857,-1.300627 -0.202929,-0.395019 -0.520587,-0.725379 -0.952905,-0.991487 z"
       inkscape:path-effect="#path-effect118" />
  </g>
</svg>
