<?xml version="1.0" encoding="UTF-8" standalone="no"?>
<!-- Created with Inkscape (http://www.inkscape.org/) -->

<svg
   width="53.38847mm"
   height="51.893604mm"
   viewBox="0 0 53.38847 51.893604"
   version="1.1"
   id="svg1"
   xml:space="preserve"
   inkscape:version="1.3.2 (091e20e, 2023-11-25, custom)"
   sodipodi:docname="mptcp logo.svg"
   xmlns:inkscape="http://www.inkscape.org/namespaces/inkscape"
   xmlns:sodipodi="http://sodipodi.sourceforge.net/DTD/sodipodi-0.dtd"
   xmlns="http://www.w3.org/2000/svg"
   xmlns:svg="http://www.w3.org/2000/svg"><sodipodi:namedview
     id="namedview1"
     pagecolor="#ffffff"
     bordercolor="#cccccc"
     borderopacity="1"
     inkscape:showpageshadow="0"
     inkscape:pageopacity="1"
     inkscape:pagecheckerboard="0"
     inkscape:deskcolor="#d1d1d1"
     inkscape:document-units="mm"
     showguides="true"
     inkscape:zoom="1.0242632"
     inkscape:cx="658.03398"
     inkscape:cy="685.85886"
     inkscape:window-width="1920"
     inkscape:window-height="1009"
     inkscape:window-x="-8"
     inkscape:window-y="-8"
     inkscape:window-maximized="1"
     inkscape:current-layer="layer1" /><defs
     id="defs1"><inkscape:path-effect
       effect="fillet_chamfer"
       id="path-effect120"
       is_visible="true"
       lpeversion="1"
       nodesatellites_param="F,0,0,1,0,1.2777777,0,1 @ F,0,1,1,0,1.2777777,0,1 @ F,0,1,1,0,1.2777777,0,1 @ F,0,0,1,0,0,0,1 @ F,0,0,1,0,0,0,1 @ F,0,0,1,0,0,0,1 @ F,0,0,1,0,0,0,1 @ F,0,0,1,0,0,0,1 @ F,0,0,1,0,0,0,1 @ F,0,0,1,0,0,0,1 @ F,0,0,1,0,0,0,1 @ F,0,0,1,0,0,0,1 @ F,0,0,1,0,0,0,1 @ F,0,0,1,0,0,0,1 @ F,0,0,1,0,0,0,1 @ F,0,0,1,0,0,0,1 @ F,0,0,1,0,0,0,1 @ F,0,0,1,0,0,0,1 @ F,0,0,1,0,0,0,1 @ F,0,0,1,0,0,0,1 @ F,0,0,1,0,0,0,1"
       radius="0"
       unit="px"
       method="auto"
       mode="F"
       chamfer_steps="1"
       flexible="false"
       use_knot_distance="true"
       apply_no_radius="true"
       apply_with_radius="true"
       only_selected="false"
       hide_knots="false" /><inkscape:path-effect
       effect="fillet_chamfer"
       id="path-effect119"
       is_visible="true"
       lpeversion="1"
       nodesatellites_param="F,0,0,1,0,0,0,1 @ F,0,1,1,0,1.2739129,0,1 @ F,0,0,1,0,1.2739129,0,1 @ F,0,1,1,0,1.2739129,0,1 @ F,0,0,1,0,0,0,1 | F,0,0,1,0,0,0,1 @ F,0,0,1,0,0,0,1 @ F,0,0,1,0,0,0,1 @ F,0,0,1,0,0,0,1 @ F,0,0,1,0,0,0,1 @ F,0,0,1,0,0,0,1 @ F,0,0,1,0,0,0,1 @ F,0,0,1,0,0,0,1 @ F,0,0,1,0,0,0,1 @ F,0,0,1,0,0,0,1 @ F,0,0,1,0,0,0,1 @ F,0,0,1,0,0,0,1 @ F,0,0,1,0,0,0,1 | F,0,0,1,0,0,0,1 @ F,0,0,1,0,0,0,1 @ F,0,0,1,0,0,0,1 @ F,0,0,1,0,0,0,1 @ F,0,0,1,0,0,0,1 @ F,0,0,1,0,0,0,1 @ F,0,0,1,0,0,0,1 @ F,0,0,1,0,0,0,1 @ F,0,0,1,0,0,0,1"
       radius="0"
       unit="px"
       method="auto"
       mode="F"
       chamfer_steps="1"
       flexible="false"
       use_knot_distance="true"
       apply_no_radius="true"
       apply_with_radius="true"
       only_selected="false"
       hide_knots="false" /><inkscape:path-effect
       effect="fillet_chamfer"
       id="path-effect118"
       is_visible="true"
       lpeversion="1"
       nodesatellites_param="F,0,0,1,0,0,0,1 @ F,0,0,1,0,0,0,1 @ F,0,1,1,0,1.3601445,0,1 @ F,0,0,1,0,1.3601445,0,1 @ F,0,1,1,0,1.3601445,0,1 | F,0,0,1,0,0,0,1 @ F,0,0,1,0,0,0,1 @ F,0,0,1,0,0,0,1 @ F,0,0,1,0,0,0,1 @ F,0,0,1,0,0,0,1 @ F,0,0,1,0,0,0,1 @ F,0,0,1,0,0,0,1 @ F,0,0,1,0,0,0,1 | F,0,0,1,0,0,0,1 @ F,0,0,1,0,0,0,1 @ F,0,0,1,0,0,0,1 @ F,0,0,1,0,0,0,1 @ F,0,0,1,0,0,0,1 @ F,0,0,1,0,0,0,1 @ F,0,0,1,0,0,0,1 @ F,0,0,1,0,0,0,1 @ F,0,0,1,0,0,0,1 @ F,0,0,1,0,0,0,1 @ F,0,0,1,0,0,0,1 @ F,0,0,1,0,0,0,1 @ F,0,0,1,0,0,0,1 @ F,0,0,1,0,0,0,1 @ F,0,0,1,0,0,0,1 @ F,0,0,1,0,0,0,1 @ F,0,0,1,0,0,0,1 @ F,0,0,1,0,0,0,1 @ F,0,0,1,0,0,0,1 @ F,0,0,1,0,0,0,1 @ F,0,0,1,0,0,0,1 @ F,0,0,1,0,0,0,1 @ F,0,0,1,0,0,0,1 @ F,0,0,1,0,0,0,1 @ F,0,0,1,0,0,0,1 @ F,0,0,1,0,0,0,1 @ F,0,0,1,0,0,0,1 | F,0,0,1,0,0,0,1 @ F,0,0,1,0,0,0,1 @ F,0,0,1,0,0,0,1 @ F,0,0,1,0,0,0,1 @ F,0,0,1,0,0,0,1 @ F,0,0,1,0,0,0,1 @ F,0,0,1,0,0,0,1 @ F,0,0,1,0,0,0,1 @ F,0,0,1,0,0,0,1 @ F,0,0,1,0,0,0,1 @ F,0,0,1,0,0,0,1 | F,0,0,1,0,0,0,1 @ F,0,0,1,0,0,0,1 @ F,0,0,1,0,0,0,1 @ F,0,0,1,0,0,0,1 @ F,0,0,1,0,0,0,1 @ F,0,0,1,0,0,0,1 @ F,0,0,1,0,0,0,1"
       radius="0"
       unit="px"
       method="auto"
       mode="F"
       chamfer_steps="1"
       flexible="false"
       use_knot_distance="true"
       apply_no_radius="true"
       apply_with_radius="true"
       only_selected="false"
       hide_knots="false" /><inkscape:path-effect
       effect="fillet_chamfer"
       id="path-effect117"
       is_visible="true"
       lpeversion="1"
       nodesatellites_param="F,0,1,1,0,1.3151989,0,1 @ F,0,0,1,0,0,0,1 @ F,0,0,1,0,0,0,1 @ F,0,0,1,0,0,0,1 @ F,0,0,1,0,0,0,1 @ F,0,0,1,0,0,0,1 @ F,0,0,1,0,0,0,1 @ F,0,0,1,0,0,0,1 @ F,0,0,1,0,0,0,1 @ F,0,0,1,0,0,0,1 @ F,0,0,1,0,0,0,1 @ F,0,0,1,0,0,0,1 @ F,0,0,1,0,0,0,1 @ F,0,0,1,0,0,0,1 @ F,0,0,1,0,0,0,1 @ F,0,0,1,0,0,0,1 @ F,0,0,1,0,0,0,1 @ F,0,0,1,0,0,0,1 @ F,0,0,1,0,0,0,1 @ F,0,0,1,0,0,0,1 @ F,0,0,1,0,0,0,1 @ F,0,0,1,0,0,0,1 @ F,0,0,1,0,0,0,1 @ F,0,0,1,0,0,0,1 @ F,0,0,1,0,0,0,1 @ F,0,0,1,0,0,0,1 @ F,0,0,1,0,0,0,1 @ F,0,0,1,0,0,0,1 @ F,0,0,1,0,0,0,1 @ F,0,0,1,0,0,0,1 @ F,0,0,1,0,0,0,1 @ F,0,0,1,0,1.3151989,0,1 @ F,0,1,1,0,1.3151989,0,1 | F,0,0,1,0,0,0,1 @ F,0,0,1,0,0,0,1 @ F,0,0,1,0,0,0,1"
       radius="0"
       unit="px"
       method="auto"
       mode="F"
       chamfer_steps="1"
       flexible="false"
       use_knot_distance="true"
       apply_no_radius="true"
       apply_with_radius="true"
       only_selected="false"
       hide_knots="false" /></defs><g
     inkscape:label="Layer 1"
     inkscape:groupmode="layer"
     id="layer1"
     transform="translate(-242.30579,-164.37951)"><g
       id="g120"
       inkscape:export-filename="mptcp logo.png"
       inkscape:export-xdpi="300"
       inkscape:export-ydpi="300"><path
         d="m 246.71378,164.9014 -3.89175,3.92708 a 1.781977,1.781977 99.098407 0 0 -0.32841,2.05069 l 4.54857,9.10538 a 3.8377175,3.8377175 45.040446 0 0 1.7133,1.71573 l 8.30831,4.16505 0.92397,-0.62838 2.30271,-1.56373 -0.0181,-4.24161 -2.32182,3.7481 -1.58544,-0.78704 -2.31717,-5.83943 v 5.89369 l -3.27783,-1.62729 v -13.38316 l 2.95744,1.46813 3.47989,8.8501 3.38067,-5.44462 2.95744,1.46812 0.0176,7.67189 2.71198,-1.84175 -0.008,-5.25808 -10e-4,-1.00666 -17.51062,-8.77723 a 1.7625456,1.7625456 170.68172 0 0 -2.04174,0.33502 z"
         style="fill:#0044aa;stroke-width:0.346516;stroke-linecap:round;stroke-linejoin:round;stroke-dashoffset:24.44"
         id="path114"
         inkscape:path-effect="#path-effect120"
         inkscape:original-d="m 247.61321,163.9938 -5.69061,5.74228 5.69061,11.39156 9.45059,4.73769 0.92397,-0.62838 2.30271,-1.56373 -0.0181,-4.24161 -2.32182,3.7481 -1.58544,-0.78704 -2.31717,-5.83943 v 5.89369 l -3.27783,-1.62729 v -13.38316 l 2.95744,1.46813 3.47989,8.8501 3.38067,-5.44462 2.95744,1.46812 0.0176,7.67189 2.71198,-1.84175 -0.008,-5.25808 -10e-4,-1.00666 z" /><path
         d="m 288.49631,167.14184 -18.22505,9.95297 0.009,5.29838 0.0175,2.11512 0.23404,-0.12764 0.0601,-0.0331 1.9049,-1.04024 c 1.22477,-0.66883 1.76456,-1.23473 2.10567,-1.72083 0.34111,-0.48611 0.57591,-1.08159 1.02423,-2.04328 0.4483,-0.96168 1.12944,-2.19925 2.21246,-3.35897 0.75521,-0.80869 1.69846,-1.5975 2.92797,-2.40037 v -1.69396 l 5.5046,-0.0232 -5.5046,5.98878 v -1.50223 c -0.99096,0.6633 -1.68987,1.26591 -2.17745,1.788 -0.73791,0.79021 -1.03591,1.36356 -1.38431,2.11098 -0.054,0.11583 -0.11192,0.24843 -0.16867,0.37621 l 8.61932,-4.70669 v -1.60559 l 5.50403,-0.0232 -5.50403,5.9893 v -1.60404 l -11.94297,6.52157 c 0.0346,0.0516 0.0696,0.10084 0.10502,0.14624 0.26347,0.33713 0.52582,0.56667 1.11586,0.59066 0.31921,0.013 1.36486,-0.29607 1.93234,-0.48937 v -1.44229 l 5.5046,-0.0227 -4.72957,5.14542 0.87483,0.43202 9.9798,-5.4499 a 3.9937184,3.9937184 133.13378 0 0 1.70817,-1.82323 l 4.23169,-9.1138 a 1.9428372,1.9428372 80.810257 0 0 -0.34788,-2.15027 l -3.53556,-3.75373 a 1.7030837,1.7030837 9.0373598 0 0 -2.05604,-0.32702 z m -11.62967,21.29388 c -0.18262,0.0698 -0.39235,0.14126 -0.60463,0.21084 l 0.60463,0.29869 z"
         style="fill:#ffcc00;stroke-width:0.335966;stroke-linecap:round;stroke-linejoin:round;stroke-dashoffset:24.44"
         id="path115"
         inkscape:path-effect="#path-effect117"
         inkscape:original-d="m 289.6506,166.51147 -19.37934,10.58334 0.009,5.29838 0.0175,2.11512 0.23404,-0.12764 0.0601,-0.0331 1.9049,-1.04024 c 1.22477,-0.66883 1.76456,-1.23473 2.10567,-1.72083 0.34111,-0.48611 0.57591,-1.08159 1.02423,-2.04328 0.4483,-0.96168 1.12944,-2.19925 2.21246,-3.35897 0.75521,-0.80869 1.69846,-1.5975 2.92797,-2.40037 v -1.69396 l 5.5046,-0.0232 -5.5046,5.98878 v -1.50223 c -0.99096,0.6633 -1.68987,1.26591 -2.17745,1.788 -0.73791,0.79021 -1.03591,1.36356 -1.38431,2.11098 -0.054,0.11583 -0.11192,0.24843 -0.16867,0.37621 l 8.61932,-4.70669 v -1.60559 l 5.50403,-0.0232 -5.50403,5.9893 v -1.60404 l -11.94297,6.52157 c 0.0346,0.0516 0.0696,0.10084 0.10502,0.14624 0.26347,0.33713 0.52582,0.56667 1.11586,0.59066 0.31921,0.013 1.36486,-0.29607 1.93234,-0.48937 v -1.44229 l 5.5046,-0.0227 -4.72957,5.14542 0.87483,0.43202 11.1341,-6.08025 5.33943,-11.49956 z m -12.78396,21.92425 c -0.18262,0.0698 -0.39235,0.14126 -0.60463,0.21084 l 0.60463,0.29869 z" /><path
         d="m 266.27926,182.13688 -17.63533,12.97645 a 4.8081643,4.8081643 128.81413 0 0 -1.5437,1.91902 l -4.65379,10.465 a 1.6165431,1.6165431 75.7349 0 0 0.4931,1.93943 l 3.66759,2.81375 a 1.6953884,1.6953884 0.57395032 0 0 2.03679,0.0204 l 17.66221,-12.9966 z m -4.85604,6.33656 c 0.48577,0.0136 0.87688,0.1977 1.17409,0.5519 0.39627,0.45954 0.5948,1.20581 0.5948,2.23966 0,1.03385 -0.19853,2.07418 -0.5948,3.12074 -0.39628,1.04658 -0.95979,2.05121 -1.69137,3.01429 -0.72142,0.94277 -1.57979,1.78323 -2.57555,2.52077 l -1.53996,1.13999 v 3.29282 l -3.59668,2.66392 v -13.40125 l 5.13664,-3.80442 c 0.99576,-0.73755 1.85413,-1.16962 2.57555,-1.29553 0.18289,-0.0333 0.35535,-0.0479 0.51728,-0.0429 z m -2.42414,4.56458 c -0.22478,0.009 -0.52421,0.15076 -0.89762,0.42736 l -1.31103,0.971 v 3.14038 l 1.31103,-0.97152 c 0.49788,-0.36878 0.86391,-0.77961 1.09761,-1.23351 0.24386,-0.46142 0.36535,-0.93505 0.36535,-1.42007 0,-0.48502 -0.12149,-0.77729 -0.36535,-0.87747 -0.0584,-0.0271 -0.12509,-0.0392 -0.19999,-0.0362 z"
         style="fill:#d40000;stroke-width:0.346712;stroke-linecap:round;stroke-linejoin:round;stroke-dashoffset:24.44"
         id="path116"
         inkscape:path-effect="#path-effect119"
         inkscape:original-d="m 266.27926,182.13688 -18.6614,13.73146 -5.68905,12.79302 5.68905,4.36459 18.68827,-13.75162 z m -4.85604,6.33656 c 0.48577,0.0136 0.87688,0.1977 1.17409,0.5519 0.39627,0.45954 0.5948,1.20581 0.5948,2.23966 0,1.03385 -0.19853,2.07418 -0.5948,3.12074 -0.39628,1.04658 -0.95979,2.05121 -1.69137,3.01429 -0.72142,0.94277 -1.57979,1.78323 -2.57555,2.52077 l -1.53996,1.13999 v 3.29282 l -3.59668,2.66392 v -13.40125 l 5.13664,-3.80442 c 0.99576,-0.73755 1.85413,-1.16962 2.57555,-1.29553 0.18289,-0.0333 0.35535,-0.0479 0.51728,-0.0429 z m -2.42414,4.56458 c -0.22478,0.009 -0.52421,0.15076 -0.89762,0.42736 l -1.31103,0.971 v 3.14038 l 1.31103,-0.97152 c 0.49788,-0.36878 0.86391,-0.77961 1.09761,-1.23351 0.24386,-0.46142 0.36535,-0.93505 0.36535,-1.42007 0,-0.48502 -0.12149,-0.77729 -0.36535,-0.87747 -0.0584,-0.0271 -0.12509,-0.0392 -0.19999,-0.0362 z" /><path
         d="m 268.31376,186.02759 v 17.17105 l 21.40196,12.8256 a 1.7497977,1.7497977 173.07461 0 0 2.13208,-0.25897 l 3.25663,-3.23216 a 1.9955836,1.9955836 100.93868 0 0 0.42655,-2.20699 l -4.10973,-9.52491 a 4.2201334,4.2201334 48.797152 0 0 -1.70553,-1.94802 z m 1.63194,4.5744 6.79648,4.07262 v 2.60863 l -2.15697,-1.29243 v 7.37009 l -2.48254,-1.48776 v -7.37009 l -2.15697,-1.29295 z m 9.31623,5.83737 c 0.0603,0.002 0.12172,0.006 0.18397,0.0124 0.505,0.046 1.05206,0.24535 1.64124,0.59842 0.72244,0.43294 1.36101,0.98667 1.91513,1.66088 0.56112,0.67837 1.02382,1.4503 1.38854,2.3151 l -1.56786,0.95653 c -0.21744,-0.50094 -0.45901,-0.93106 -0.72554,-1.29036 -0.25951,-0.36461 -0.55401,-0.64582 -0.88366,-0.84336 -0.25952,-0.15553 -0.49496,-0.23961 -0.70539,-0.25166 -0.21042,-0.0121 -0.39242,0.0448 -0.54673,0.17105 -0.1473,0.13031 -0.26309,0.32747 -0.34727,0.59066 -0.0842,0.25368 -0.12609,0.57018 -0.12609,0.95033 0,0.38014 0.0419,0.75216 0.12609,1.11621 0.0842,0.35457 0.19997,0.68533 0.34727,0.99219 0.15431,0.31107 0.33631,0.58669 0.54673,0.82682 0.21043,0.24015 0.44587,0.43823 0.70539,0.59376 0.32965,0.19754 0.62415,0.27402 0.88366,0.22996 0.26653,-0.0493 0.5081,-0.19374 0.72554,-0.43408 l 1.56786,2.83497 c -0.36472,0.41817 -0.82742,0.63522 -1.38854,0.65061 -0.55412,0.0101 -1.19269,-0.20167 -1.91513,-0.63459 -0.58918,-0.35308 -1.13624,-0.80418 -1.64124,-1.35392 -0.49799,-0.55503 -0.93258,-1.17657 -1.30432,-1.86501 -0.36473,-0.68423 -0.64924,-1.40608 -0.85266,-2.16472 -0.2034,-0.75864 -0.30489,-1.52308 -0.30489,-2.29288 0,-0.76979 0.10149,-1.41165 0.30489,-1.9265 0.20342,-0.51485 0.48793,-0.89597 0.85266,-1.14308 0.32527,-0.21256 0.69842,-0.31247 1.12035,-0.29973 z m 5.8446,3.24787 3.54552,2.12441 c 0.68736,0.41191 1.28019,0.91935 1.77819,1.52188 0.50501,0.60675 0.89383,1.2771 1.16737,2.01124 0.27354,0.72465 0.41083,1.47194 0.41083,2.24173 0,0.76979 -0.13729,1.35245 -0.41083,1.74924 -0.27354,0.39678 -0.66236,0.60137 -1.16737,0.61237 -0.498,0.005 -1.09083,-0.19738 -1.77819,-0.60927 l -1.06247,-0.63665 v 2.45153 l -2.48305,-1.48776 z m 2.48305,4.08243 v 2.33733 l 0.90434,0.5426 c 0.3437,0.20598 0.59625,0.25247 0.75758,0.14004 0.1684,-0.10818 0.2527,-0.3427 0.2527,-0.70383 0,-0.36114 -0.0843,-0.6967 -0.2527,-1.00666 -0.16133,-0.30574 -0.41388,-0.56143 -0.75758,-0.76739 z"
         style="fill:#447821;stroke-width:0.334089;stroke-linecap:round;stroke-linejoin:round;stroke-dashoffset:24.44"
         id="path117"
         inkscape:path-effect="#path-effect118"
         inkscape:original-d="m 268.31376,186.02759 v 17.17105 l 22.56865,13.52476 5.18741,-5.14842 -5.18741,-12.02263 z m 1.63194,4.5744 6.79648,4.07262 v 2.60863 l -2.15697,-1.29243 v 7.37009 l -2.48254,-1.48776 v -7.37009 l -2.15697,-1.29295 z m 9.31623,5.83737 c 0.0603,0.002 0.12172,0.006 0.18397,0.0124 0.505,0.046 1.05206,0.24535 1.64124,0.59842 0.72244,0.43294 1.36101,0.98667 1.91513,1.66088 0.56112,0.67837 1.02382,1.4503 1.38854,2.3151 l -1.56786,0.95653 c -0.21744,-0.50094 -0.45901,-0.93106 -0.72554,-1.29036 -0.25951,-0.36461 -0.55401,-0.64582 -0.88366,-0.84336 -0.25952,-0.15553 -0.49496,-0.23961 -0.70539,-0.25166 -0.21042,-0.0121 -0.39242,0.0448 -0.54673,0.17105 -0.1473,0.13031 -0.26309,0.32747 -0.34727,0.59066 -0.0842,0.25368 -0.12609,0.57018 -0.12609,0.95033 0,0.38014 0.0419,0.75216 0.12609,1.11621 0.0842,0.35457 0.19997,0.68533 0.34727,0.99219 0.15431,0.31107 0.33631,0.58669 0.54673,0.82682 0.21043,0.24015 0.44587,0.43823 0.70539,0.59376 0.32965,0.19754 0.62415,0.27402 0.88366,0.22996 0.26653,-0.0493 0.5081,-0.19374 0.72554,-0.43408 l 1.56786,2.83497 c -0.36472,0.41817 -0.82742,0.63522 -1.38854,0.65061 -0.55412,0.0101 -1.19269,-0.20167 -1.91513,-0.63459 -0.58918,-0.35308 -1.13624,-0.80418 -1.64124,-1.35392 -0.49799,-0.55503 -0.93258,-1.17657 -1.30432,-1.86501 -0.36473,-0.68423 -0.64924,-1.40608 -0.85266,-2.16472 -0.2034,-0.75864 -0.30489,-1.52308 -0.30489,-2.29288 0,-0.76979 0.10149,-1.41165 0.30489,-1.9265 0.20342,-0.51485 0.48793,-0.89597 0.85266,-1.14308 0.32527,-0.21256 0.69842,-0.31247 1.12035,-0.29973 z m 5.8446,3.24787 3.54552,2.12441 c 0.68736,0.41191 1.28019,0.91935 1.77819,1.52188 0.50501,0.60675 0.89383,1.2771 1.16737,2.01124 0.27354,0.72465 0.41083,1.47194 0.41083,2.24173 0,0.76979 -0.13729,1.35245 -0.41083,1.74924 -0.27354,0.39678 -0.66236,0.60137 -1.16737,0.61237 -0.498,0.005 -1.09083,-0.19738 -1.77819,-0.60927 l -1.06247,-0.63665 v 2.45153 l -2.48305,-1.48776 z m 2.48305,4.08243 v 2.33733 l 0.90434,0.5426 c 0.3437,0.20598 0.59625,0.25247 0.75758,0.14004 0.1684,-0.10818 0.2527,-0.3427 0.2527,-0.70383 0,-0.36114 -0.0843,-0.6967 -0.2527,-1.00666 -0.16133,-0.30574 -0.41388,-0.56143 -0.75758,-0.76739 z"
         sodipodi:nodetypes="cccccccccccccccccsccccssccsccssccccsccsssccccccsscsccccccccsccc" /></g></g></svg>
